<svg xmlns="http://www.w3.org/2000/svg" viewBox="0 0 64 64">
  <rect x="2" y="2" width="60" height="60" rx="14" fill="#09090b"/>
  <rect x="2.75" y="2.75" width="58.5" height="58.5" rx="13.25" fill="none" stroke="#27272a" stroke-width="1.5"/>
  <g transform="translate(4 4) scale(2.333333)" fill="#fafafa">
    <path d="M3.2 8.6 7.3 4.2l3.4 3.2-2.1 2.2-2.2-2.1-1.7 1.8Z"/>
    <path d="M6.1 11.2c3.2-3.4 7.3-5.1 11.8-4.2l2.9.6-2.4 3.2c-3.2-.5-6 .6-8.2 2.9l-2.5 2.6-3.1-2.7Z"/>
    <path d="M10.2 17.1c2.8-2.9 6.3-4.3 10.1-3.7l-2.8 3.3c-1.9-.1-3.6.6-4.9 2l-2.3 2.4-1.7-2.1Z"/>
  </g>
</svg>
